<svg width="12" height="10" viewBox="0 0 12 10" fill="none" xmlns="http://www.w3.org/2000/svg">
<path d="M4.07812 9.28906C4.17188 9.42969 4.3125 9.47656 4.5 9.47656C4.66406 9.47656 4.80469 9.42969 4.92188 9.28906L11.8359 2.39844C11.9297 2.30469 12 2.16406 12 1.97656C12 1.8125 11.9297 1.67188 11.8359 1.55469L10.9688 0.710938C10.8516 0.59375 10.7109 0.523438 10.5469 0.523438C10.3828 0.523438 10.2422 0.59375 10.125 0.710938L4.5 6.33594L1.875 3.71094C1.73438 3.59375 1.59375 3.52344 1.42969 3.52344C1.26562 3.52344 1.125 3.59375 1.03125 3.71094L0.164062 4.55469C0.046875 4.67188 0 4.8125 0 4.97656C0 5.16406 0.046875 5.30469 0.164062 5.39844L4.07812 9.28906Z" fill="currentColor"/>
</svg>
